# xmcd CD database file
#
# Track frame offsets:
#	150
#	15425
#	37687
#
# Disc length: 703 seconds
#
# Revision: 0
# Processed by: cddbd v1.5.1PL0 Copyright (c) Steve Scherf et al.
# Submitted via: CDex 1.51
#
DISCID=1002bd03
DTITLE=Funta - 顔でかーい
DYEAR=1998
DGENRE=Anime
TTITLE0=顔でかーい
TTITLE1=It's[a HAPPY WORLD
TTITLE2=顔でかーい (カラオケ)
EXTD=YEAR: 1998
EXTT0=
EXTT1=
EXTT2=
PLAYORDER=
